<svg width="623" height="134" viewBox="0 0 623 134" fill="none" xmlns="http://www.w3.org/2000/svg">
<path d="M42.752 1.39999C51.0293 1.39999 57.5147 2.25333 62.208 3.96C66.9013 5.66666 70.2293 8.61066 72.192 12.792C74.24 16.9733 75.264 22.8187 75.264 30.328C75.264 37.8373 74.2827 43.6827 72.32 47.864C70.4427 52.0453 67.328 54.9893 62.976 56.696C58.624 58.3173 52.736 59.128 45.312 59.128C41.3867 59.128 37.5467 58.9573 33.792 58.616C30.0373 58.2747 26.5387 57.848 23.296 57.336C20.0533 56.824 17.28 56.312 14.976 55.8C12.672 55.2027 11.0933 54.648 10.24 54.136L10.624 44.408C15.6587 44.408 20.864 44.408 26.24 44.408C31.7013 44.408 37.0773 44.408 42.368 44.408C45.7813 44.3227 48.4267 43.896 50.304 43.128C52.2667 42.36 53.632 40.952 54.4 38.904C55.2533 36.856 55.68 33.9973 55.68 30.328C55.68 26.5733 55.2533 23.672 54.4 21.624C53.632 19.576 52.2667 18.168 50.304 17.4C48.4267 16.5467 45.7813 16.12 42.368 16.12C34.5173 16.12 27.776 16.1627 22.144 16.248C16.512 16.3333 12.7147 16.504 10.752 16.76L8.832 2.67999C12.416 2.25333 15.7867 1.95466 18.944 1.784C22.1013 1.61333 25.5147 1.52799 29.184 1.52799C32.9387 1.44266 37.4613 1.39999 42.752 1.39999ZM28.416 2.67999V91H8.832V2.67999H28.416ZM126.072 2.67999C127.693 2.67999 129.101 3.14933 130.296 4.088C131.576 5.02666 132.429 6.26399 132.856 7.8L158.456 91H138.488L120.44 26.104C120.099 24.6533 119.757 23.2027 119.416 21.752C119.075 20.216 118.776 18.7653 118.52 17.4H115.064C114.808 18.7653 114.509 20.216 114.168 21.752C113.912 23.2027 113.571 24.6533 113.144 26.104L95.096 91H75L100.728 7.8C101.155 6.26399 101.965 5.02666 103.16 4.088C104.44 3.14933 105.891 2.67999 107.512 2.67999H126.072ZM139.64 52.984V67.704H93.816V52.984H139.64ZM242.209 2.67999V83.96C242.209 88.6533 239.862 91 235.169 91H224.417C222.284 91 220.662 90.5307 219.553 89.592C218.444 88.568 217.42 87.0747 216.481 85.112L192.033 38.776C191.009 36.8133 189.985 34.6373 188.961 32.248C188.022 29.8587 187.212 27.5547 186.529 25.336H185.121C185.377 27.64 185.59 29.9867 185.761 32.376C185.932 34.68 186.017 36.984 186.017 39.288V91H167.457V9.71999C167.457 5.02666 169.846 2.67999 174.625 2.67999H185.249C187.297 2.67999 188.833 3.19199 189.857 4.216C190.966 5.15466 192.033 6.60533 193.057 8.56799L216.737 53.496C217.761 55.4587 218.828 57.6347 219.937 60.024C221.046 62.4133 222.113 64.888 223.137 67.448H224.673C224.417 64.888 224.204 62.4133 224.033 60.024C223.948 57.5493 223.905 55.1173 223.905 52.728L223.777 2.67999H242.209ZM295.032 0.887993C302.029 0.887993 307.96 1.65599 312.824 3.19199C317.688 4.64266 321.571 7.11733 324.472 10.616C327.459 14.0293 329.635 18.7227 331 24.696C332.365 30.584 333.048 37.9653 333.048 46.84C333.048 55.7147 332.365 63.1387 331 69.112C329.635 75 327.459 79.6933 324.472 83.192C321.571 86.6053 317.688 89.08 312.824 90.616C307.96 92.0667 302.029 92.792 295.032 92.792C288.035 92.792 282.104 92.0667 277.24 90.616C272.376 89.08 268.451 86.6053 265.464 83.192C262.477 79.6933 260.301 75 258.936 69.112C257.571 63.1387 256.888 55.7147 256.888 46.84C256.888 37.9653 257.571 30.584 258.936 24.696C260.301 18.7227 262.477 14.0293 265.464 10.616C268.451 7.11733 272.376 4.64266 277.24 3.19199C282.104 1.65599 288.035 0.887993 295.032 0.887993ZM295.032 16.376C290.509 16.376 286.968 17.272 284.408 19.064C281.933 20.856 280.141 23.9707 279.032 28.408C278.008 32.76 277.496 38.904 277.496 46.84C277.496 54.6907 278.008 60.8347 279.032 65.272C280.141 69.7093 281.933 72.824 284.408 74.616C286.968 76.408 290.509 77.304 295.032 77.304C299.469 77.304 302.925 76.408 305.4 74.616C307.96 72.824 309.752 69.7093 310.776 65.272C311.885 60.8347 312.44 54.6907 312.44 46.84C312.44 38.904 311.885 32.76 310.776 28.408C309.752 23.9707 307.96 20.856 305.4 19.064C302.925 17.272 299.469 16.376 295.032 16.376ZM382.005 1.39999C389.77 1.39999 396.042 2.21066 400.821 3.83199C405.685 5.36799 409.226 8.05599 411.445 11.896C413.749 15.6507 414.901 20.8987 414.901 27.64C414.901 31.736 414.346 35.3627 413.237 38.52C412.213 41.592 410.464 44.0667 407.989 45.944C405.514 47.8213 402.144 49.016 397.877 49.528V50.168C399.413 50.424 400.992 51.0213 402.613 51.96C404.32 52.8987 405.898 54.3067 407.349 56.184C408.8 57.976 409.866 60.408 410.549 63.48L418.229 91H397.621L390.837 64.12C390.069 61.2187 388.917 59.2133 387.381 58.104C385.93 56.9947 383.882 56.44 381.237 56.44C375.434 56.44 370.528 56.44 366.517 56.44C362.592 56.3547 359.264 56.2693 356.533 56.184C353.888 56.0987 351.498 56.0133 349.365 55.928L349.749 41.72H381.621C385.034 41.72 387.722 41.3787 389.685 40.696C391.733 39.928 393.141 38.6053 393.909 36.728C394.762 34.8507 395.189 32.248 395.189 28.92C395.189 25.5067 394.762 22.904 393.909 21.112C393.141 19.2347 391.733 17.9547 389.685 17.272C387.722 16.504 385.034 16.12 381.621 16.12C373.6 16.12 366.816 16.1627 361.269 16.248C355.722 16.3333 351.925 16.4613 349.877 16.632L347.957 2.67999C351.541 2.25333 354.912 1.95466 358.069 1.784C361.226 1.61333 364.682 1.52799 368.437 1.52799C372.192 1.44266 376.714 1.39999 382.005 1.39999ZM367.285 2.67999V91H347.957V2.67999H367.285ZM473.072 2.67999C474.693 2.67999 476.101 3.14933 477.296 4.088C478.576 5.02666 479.429 6.26399 479.856 7.8L505.456 91H485.488L467.44 26.104C467.099 24.6533 466.757 23.2027 466.416 21.752C466.075 20.216 465.776 18.7653 465.52 17.4H462.064C461.808 18.7653 461.509 20.216 461.168 21.752C460.912 23.2027 460.571 24.6533 460.144 26.104L442.096 91H422L447.728 7.8C448.155 6.26399 448.965 5.02666 450.16 4.088C451.44 3.14933 452.891 2.67999 454.512 2.67999H473.072ZM486.64 52.984V67.704H440.816V52.984H486.64ZM604.953 2.67999C609.561 2.67999 611.95 5.06933 612.121 9.848L615.449 91H597.401L594.457 17.784H592.153L577.945 72.824C577.177 76.92 574.617 78.968 570.265 78.968H557.977C553.625 78.968 550.98 76.92 550.041 72.824L535.833 17.784H533.657L530.969 91H512.793L516.121 9.848C516.292 5.06933 518.724 2.67999 523.417 2.67999H541.721C545.902 2.67999 548.462 4.77066 549.401 8.952L560.793 53.368C561.305 55.416 561.732 57.5067 562.073 59.64C562.414 61.688 562.798 63.7787 563.225 65.912H564.889C565.316 63.7787 565.7 61.688 566.041 59.64C566.468 57.5067 566.894 55.3733 567.321 53.24L578.585 8.952C579.438 4.77066 581.998 2.67999 586.265 2.67999H604.953Z" fill="white"/>
<path d="M21.032 98.448C23.464 98.448 25.512 98.736 27.176 99.312C28.872 99.888 30.232 100.832 31.256 102.144C32.28 103.424 33.016 105.168 33.464 107.376C33.944 109.552 34.184 112.24 34.184 115.44C34.184 118.64 33.944 121.344 33.464 123.552C33.016 125.728 32.28 127.472 31.256 128.784C30.232 130.064 28.872 130.992 27.176 131.568C25.512 132.144 23.464 132.432 21.032 132.432C18.728 132.432 16.584 132.384 14.6 132.288C12.648 132.224 10.792 132.128 9.032 132L11.048 128.16C12.392 128.224 13.88 128.288 15.512 128.352C17.176 128.384 19.016 128.4 21.032 128.4C23.08 128.4 24.696 128 25.88 127.2C27.064 126.4 27.896 125.072 28.376 123.216C28.888 121.328 29.144 118.736 29.144 115.44C29.144 112.144 28.888 109.568 28.376 107.712C27.896 105.824 27.064 104.48 25.88 103.68C24.696 102.848 23.08 102.432 21.032 102.432C19.048 102.432 17.272 102.448 15.704 102.48C14.136 102.512 12.6 102.544 11.096 102.576L9.032 98.88C10.792 98.752 12.648 98.656 14.6 98.592C16.584 98.496 18.728 98.448 21.032 98.448ZM13.832 98.88V132H9.032V98.88H13.832ZM45.8476 98.88V132H41.0476V98.88H45.8476ZM66.7074 98.256C67.8914 98.256 69.0114 98.288 70.0674 98.352C71.1554 98.416 72.1954 98.528 73.1874 98.688C74.2114 98.816 75.2034 99.024 76.1634 99.312L75.6834 102.864C74.6594 102.768 73.6354 102.704 72.6114 102.672C71.6194 102.608 70.6434 102.576 69.6834 102.576C68.7234 102.544 67.7954 102.528 66.8994 102.528C65.2034 102.528 63.7634 102.688 62.5794 103.008C61.3954 103.328 60.4514 103.952 59.7474 104.88C59.0754 105.808 58.5794 107.136 58.2594 108.864C57.9394 110.592 57.7794 112.848 57.7794 115.632C57.7794 118.8 57.9874 121.312 58.4034 123.168C58.8514 125.024 59.5714 126.368 60.5634 127.2C61.5874 128.032 62.9474 128.448 64.6434 128.448C65.8274 128.448 66.8994 128.288 67.8594 127.968C68.8194 127.648 69.7154 127.232 70.5474 126.72C71.4114 126.176 72.2274 125.632 72.9954 125.088L73.6194 127.872C73.0754 128.512 72.2914 129.216 71.2674 129.984C70.2754 130.72 69.1074 131.344 67.7634 131.856C66.4194 132.368 64.8994 132.624 63.2034 132.624C60.7394 132.624 58.7234 132.016 57.1554 130.8C55.6194 129.584 54.4834 127.712 53.7474 125.184C53.0434 122.624 52.6914 119.344 52.6914 115.344C52.6914 110.992 53.1394 107.568 54.0354 105.072C54.9314 102.576 56.4034 100.816 58.4514 99.792C60.4994 98.768 63.2514 98.256 66.7074 98.256ZM77.0754 112.848V132H73.5714L72.8034 127.104L72.3714 126.048V112.848H77.0754ZM89.0195 98.88V132H84.2195V98.88H89.0195ZM109.447 98.88V132H104.647V98.88H109.447ZM120.007 98.88V103.008H94.1353V98.88H120.007ZM135.817 98.88C136.233 98.88 136.601 99.008 136.921 99.264C137.241 99.488 137.465 99.792 137.593 100.176L148.057 132H143.065L134.809 105.36C134.681 104.88 134.553 104.4 134.425 103.92C134.297 103.44 134.169 102.992 134.041 102.576H132.697C132.569 102.992 132.441 103.44 132.313 103.92C132.185 104.4 132.041 104.88 131.881 105.36L123.625 132H118.681L129.145 100.176C129.273 99.792 129.497 99.488 129.817 99.264C130.137 99.008 130.505 98.88 130.921 98.88H135.817ZM141.769 117.936V121.92H124.873V117.936H141.769ZM157.126 98.88V124.992C157.126 126.016 157.382 126.784 157.894 127.296C158.406 127.776 159.19 128.016 160.246 128.016H172.102L172.342 131.712C170.198 131.872 168.022 131.968 165.814 132C163.606 132.032 161.398 132.048 159.19 132.048C156.758 132.048 155.014 131.456 153.958 130.272C152.902 129.056 152.374 127.536 152.374 125.712V98.88H157.126Z" fill="white"/>
</svg>
